<svg width="30" height="30" viewBox="0 0 30 30" fill="none" xmlns="http://www.w3.org/2000/svg">
<g clip-path="url(#clip0_22_64)">
<path d="M27.2863 0H2.71375C1.215 0 0 1.215 0 2.71374V27.2862C0 28.785 1.215 30 2.71375 30H27.2862C28.785 30 30 28.785 30 27.2862V2.71374C30 1.215 28.785 0 27.2863 0ZM9.28327 25.904C9.28327 26.3402 8.92971 26.6937 8.49353 26.6937H5.13181C4.69563 26.6937 4.34207 26.3402 4.34207 25.904V11.8118C4.34207 11.3756 4.69563 11.022 5.13181 11.022H8.49353C8.92971 11.022 9.28327 11.3756 9.28327 11.8118V25.904ZM6.81267 9.69361C5.04887 9.69361 3.619 8.26374 3.619 6.49995C3.619 4.73615 5.04887 3.30628 6.81267 3.30628C8.57646 3.30628 10.0063 4.73615 10.0063 6.49995C10.0063 8.26374 8.57654 9.69361 6.81267 9.69361ZM26.8516 25.9676C26.8516 26.3686 26.5264 26.6937 26.1254 26.6937H22.5181C22.1171 26.6937 21.7919 26.3686 21.7919 25.9676V19.3575C21.7919 18.3715 22.0812 15.0365 19.215 15.0365C16.9918 15.0365 16.5408 17.3192 16.4503 18.3436V25.9676C16.4503 26.3686 16.1252 26.6937 15.7242 26.6937H12.2352C11.8342 26.6937 11.5091 26.3686 11.5091 25.9676V11.7481C11.5091 11.3471 11.8342 11.022 12.2352 11.022H15.7242C16.1252 11.022 16.4503 11.3471 16.4503 11.7481V12.9776C17.2747 11.7404 18.4998 10.7855 21.1083 10.7855C26.8846 10.7855 26.8516 16.1821 26.8516 19.1472V25.9676Z" fill="white"/>
<path d="M-25.2137 40.5H-49.7863C-51.285 40.5 -52.5 41.715 -52.5 43.2137V67.7862C-52.5 69.285 -51.285 70.5 -49.7863 70.5H-25.2138C-23.715 70.5 -22.5 69.285 -22.5 67.7862V43.2137C-22.5 41.715 -23.715 40.5 -25.2137 40.5ZM-43.2167 66.404C-43.2167 66.8402 -43.5703 67.1937 -44.0065 67.1937H-47.3682C-47.8044 67.1937 -48.1579 66.8402 -48.1579 66.404V52.3118C-48.1579 51.8756 -47.8044 51.522 -47.3682 51.522H-44.0065C-43.5703 51.522 -43.2167 51.8756 -43.2167 52.3118V66.404ZM-45.6873 50.1936C-47.4511 50.1936 -48.881 48.7637 -48.881 46.9999C-48.881 45.2362 -47.4511 43.8063 -45.6873 43.8063C-43.9235 43.8063 -42.4937 45.2362 -42.4937 46.9999C-42.4937 48.7637 -43.9235 50.1936 -45.6873 50.1936ZM-25.6484 66.4676C-25.6484 66.8686 -25.9736 67.1937 -26.3746 67.1937H-29.9819C-30.3829 67.1937 -30.7081 66.8686 -30.7081 66.4676V59.8575C-30.7081 58.8715 -30.4188 55.5365 -33.285 55.5365C-35.5082 55.5365 -35.9592 57.8192 -36.0497 58.8436V66.4676C-36.0497 66.8686 -36.3748 67.1937 -36.7758 67.1937H-40.2648C-40.6658 67.1937 -40.9909 66.8686 -40.9909 66.4676V52.2481C-40.9909 51.8471 -40.6658 51.522 -40.2648 51.522H-36.7758C-36.3748 51.522 -36.0497 51.8471 -36.0497 52.2481V53.4776C-35.2253 52.2404 -34.0002 51.2855 -31.3917 51.2855C-25.6154 51.2855 -25.6484 56.6821 -25.6484 59.6472V66.4676Z" fill="white"/>
</g>
<defs>
<clipPath id="clip0_22_64">
<rect width="30" height="30" fill="white"/>
</clipPath>
</defs>
</svg>
