<svg width="30" height="30" viewBox="0 0 30 30" fill="none" xmlns="http://www.w3.org/2000/svg">
<rect width="30" height="30" rx="3" fill="white"/>
<path d="M20.5022 28.838C21.4185 28.838 21.2876 30 21.2876 30H9.37571C9.37571 30 9.24481 28.838 10.1611 28.838C11.012 28.838 11.2083 28.4278 11.2083 28.0177L11.1429 24.5999C6.49591 25.6936 5.51416 22.6859 5.51416 22.6859C4.72876 20.6352 3.68156 20.1568 3.68156 20.1568C2.11076 19.0631 3.74701 19.0631 3.74701 19.0631C5.44871 19.1998 6.36501 20.8403 6.36501 20.8403C7.80491 23.5062 10.2266 22.7543 11.2083 22.3441C11.3392 21.1821 11.7974 20.4302 12.2555 19.9517C8.52486 19.5416 4.66331 18.0377 4.66331 11.3389C4.66331 9.42489 5.31781 7.8527 6.36501 6.6223C6.16866 6.21216 5.64506 4.43491 6.56136 2.04246C6.56136 2.04246 7.93581 1.56396 11.1429 3.81971C13.8918 2.99944 16.7716 2.99944 19.5205 3.81971C22.7275 1.56396 24.102 2.04246 24.102 2.04246C25.0182 4.43491 24.4946 6.21216 24.2983 6.6223C25.3455 7.8527 26 9.42489 26 11.3389C26 18.0377 22.073 19.5416 18.3424 19.9517C18.9969 20.4985 19.5205 21.5922 19.5205 23.2328L19.455 28.0177C19.455 28.4278 19.6514 28.838 20.5022 28.838Z" fill="#001220"/>
</svg>
