<svg width="43" height="63" viewBox="0 0 43 63" fill="none" xmlns="http://www.w3.org/2000/svg">
<path d="M34.958 44.2286L23.32 25.4309C21.9895 25.4309 19.8861 25.3315 17.0097 25.1327V44.2286H11.0572V0.448546C11.2744 0.448546 12.817 0.373993 15.6848 0.224889C18.5526 0.0757845 20.6415 0.000821512 21.9515 0C32.4279 0 37.6661 4.18396 37.6661 12.5519C37.6854 15.2434 36.7935 17.8617 35.1366 19.9775C33.6824 22.0218 31.5503 23.4788 29.1227 24.0872L41.7715 44.2286H34.958ZM17.0097 5.8274V20.0521C18.3903 20.2483 19.7827 20.3483 21.1771 20.3515C24.7486 20.3515 27.3476 19.7736 28.9742 18.6177C30.6008 17.4619 31.4145 15.4001 31.4154 12.4324C31.4154 9.98137 30.5425 8.218 28.7969 7.14223C27.0512 6.06646 24.2928 5.52837 20.5217 5.52796C19.9268 5.52796 18.7564 5.62777 17.0103 5.8274" fill="url(#paint0_linear_22_58)"/>
<path d="M9.27416 45.6343L18.516 59.7412L13.8786 62.6572L0 41.4733L1.36595 40.6133L34.0562 40.4807L24.7354 26.2588L29.3728 23.3429L43 44.1447L41.5279 45.0705L9.27416 45.6343Z" fill="url(#paint1_linear_22_58)"/>
<defs>
<linearGradient id="paint0_linear_22_58" x1="15.0661" y1="6.14887e-06" x2="49.7845" y2="7.59385" gradientUnits="userSpaceOnUse">
<stop stop-color="#F12711"/>
<stop offset="0.317708" stop-color="#FF3C26"/>
<stop offset="1" stop-color="#FFAE00"/>
<stop offset="1" stop-color="#FFAE00" stop-opacity="0.73"/>
</linearGradient>
<linearGradient id="paint1_linear_22_58" x1="5.61245" y1="23.3429" x2="51.1405" y2="39.027" gradientUnits="userSpaceOnUse">
<stop stop-color="#F12711"/>
<stop offset="0.317708" stop-color="#FF3C26"/>
<stop offset="1" stop-color="#FFAE00"/>
<stop offset="1" stop-color="#FFAE00" stop-opacity="0.73"/>
</linearGradient>
</defs>
</svg>
